<svg width="151" height="147" viewBox="0 0 151 147" fill="none" xmlns="http://www.w3.org/2000/svg">
<path d="M146.55 101.457C146.856 81.1042 149.794 59.5496 146.315 39.2663C147.52 35.6828 147.072 29.8601 145.481 27.7937C143.756 25.5534 141.961 22.7087 140.423 19.912C139.135 17.5701 138.233 13.795 136.047 12.8387C134.541 12.1801 133.606 9.65304 132.934 9.45364C131.932 9.15613 130.444 9.84411 129.531 9.30208C126.096 7.26288 125.486 4.856 120.486 4.856C114.322 4.856 108.875 5.89639 103.125 8.49369C100.394 9.72776 97.6891 9.77142 94.9073 10.5146C92.9611 11.0346 91.7216 12.8148 89.6554 13.0408C88.0193 13.2197 87.382 14.8596 85.6193 14.8596L80.4647 14.8596C76.9596 14.8596 73.8348 11.7801 71.0794 9.90835C67.5741 7.52705 62.6591 7.51267 59.4573 5.20968C55.5612 2.40723 51.8025 2.70031 47.1544 3.74448C43.877 4.48072 40.7371 3.52149 37.526 4.85599C33.94 6.3463 30.6601 7.99753 27.2168 9.85782C21.1814 13.1186 19.0946 20.6391 14.1845 25.5706C9.65476 30.12 3.00001 35.0108 3.00001 42.1928L3.00001 66.1915C3.00001 83.8292 5.88544 100.747 9.32166 117.624C10.5356 123.587 14.4492 126.254 17.0535 131.215C18.8242 134.588 23.9157 136.163 26.6333 138.541C29.0897 140.69 36.1481 142.719 39.3739 143.038C43.8967 143.485 50.1074 143.686 54.1568 141.471C58.0864 139.323 60.3328 136.039 63.7852 133.085C64.9904 132.053 65.0678 129.401 66.4111 128.74C67.8588 128.027 69.7079 128.515 71.274 127.83C80.3666 123.852 84.3858 135.328 90.3362 139.248C101.399 146.537 115.19 144.696 126.516 138.743C130.901 136.438 133.994 132.122 136.873 128.083C138.562 125.715 141.466 124.228 142.611 121.717C145.795 114.735 146.432 109.324 146.55 101.457Z" fill="#F8D65C"/>
<path d="M144.8 32.1387C150.524 54.4426 146.893 78.701 146.55 101.457C146.432 109.324 145.795 114.735 142.611 121.717C141.466 124.228 138.562 125.715 136.873 128.083C133.994 132.122 130.901 136.438 126.516 138.743C115.19 144.696 101.399 146.537 90.3362 139.248C84.3858 135.328 80.3666 123.852 71.274 127.83C69.7079 128.515 67.8588 128.027 66.4111 128.74C65.0678 129.401 64.9904 132.053 63.7852 133.085C60.3328 136.039 58.0864 139.323 54.1568 141.471C50.1074 143.686 43.8967 143.485 39.3739 143.038C36.1481 142.719 29.0897 140.69 26.6333 138.541C23.9157 136.163 18.8242 134.588 17.0535 131.215C14.4492 126.254 10.5356 123.587 9.32166 117.624C5.88544 100.747 3 83.8292 3 66.1915C3 58.1919 3.00001 50.1924 3.00001 42.1928C3.00001 35.0108 9.65477 30.12 14.1845 25.5706C19.0946 20.6391 21.1814 13.1186 27.2168 9.85782C30.6601 7.99754 33.94 6.34631 37.526 4.856C40.7371 3.52149 43.8771 4.48072 47.1544 3.74449C51.8025 2.70031 55.5612 2.40723 59.4573 5.20967C62.6591 7.51267 67.5741 7.52705 71.0795 9.90835C73.8348 11.7801 76.9596 14.8596 80.4647 14.8596C82.1829 14.8596 83.9011 14.8596 85.6193 14.8596C87.382 14.8596 88.0193 13.2197 89.6554 13.0408C91.7216 12.8148 92.9611 11.0346 94.9073 10.5146C97.6891 9.77142 100.394 9.72776 103.125 8.49369C108.875 5.89639 114.322 4.856 120.486 4.85601C125.486 4.85601 126.096 7.26288 129.531 9.30207C130.444 9.84411 131.932 9.15613 132.934 9.45365C133.606 9.65304 134.541 12.1801 136.047 12.8387C138.233 13.7949 139.135 17.5701 140.423 19.912C141.961 22.7087 143.756 25.5534 145.481 27.7937C147.732 30.7177 147.696 41.1628 143.924 42.1423" stroke="#5B513E" stroke-width="5" stroke-linecap="round" stroke-linejoin="round"/>
</svg>
