<svg width="116" height="68" viewBox="0 0 116 68" fill="none" xmlns="http://www.w3.org/2000/svg">
<path d="M58.7955 3.96104C69.385 2.84636 79.9575 2.03908 90.6121 1.79348C94.0042 4.25761 102.598 0.939432 104.486 3.96104C105.453 5.50881 109.011 6.84098 110.573 8.40261C113.508 11.3377 114.274 14.8996 114.274 19.013C114.274 31.2391 114.043 40.7085 105.638 50.5152C100.589 56.4048 93.0524 63.0329 85.2804 64.0044C79.7839 64.6915 75.6349 66.143 70.0228 66.143C55.905 66.143 41.8137 66.4943 27.7456 65.2382C23.0497 64.8189 18.2758 63.7034 13.5984 63.0174C10.5486 62.5701 6.67072 61.3538 4.42741 59.1105C2.24337 56.9264 2.85064 51.2261 2.12438 48.4178C1.11326 44.5082 0.943547 40.8765 1.01399 36.8615C1.16698 28.1409 5.03998 23.5078 9.85599 16.6277C15.5264 8.52709 24.0689 9.54833 32.763 7.49785C41.2744 5.49043 50.09 4.8774 58.7955 3.96104Z" fill="#413406"/>
<path d="M93.5466 1.74026C81.8972 1.89354 70.3565 2.74409 58.7955 3.96104C50.09 4.8774 41.2744 5.49043 32.763 7.49785C24.0689 9.54833 15.5264 8.52709 9.85599 16.6277C5.03998 23.5078 1.16698 28.1409 1.01399 36.8615C0.943547 40.8765 1.11326 44.5082 2.12438 48.4178C2.85064 51.2261 2.24337 56.9264 4.42741 59.1105C6.67072 61.3538 10.5486 62.5701 13.5984 63.0174C18.2758 63.7034 23.0497 64.8189 27.7456 65.2382C41.8137 66.4943 55.905 66.143 70.0228 66.143C75.6349 66.143 79.7839 64.6915 85.2804 64.0044C93.0524 63.0329 100.589 56.4047 105.638 50.5152C114.043 40.7085 114.274 31.2391 114.274 19.013C114.274 14.8996 113.508 11.3377 110.573 8.40261C109.011 6.84098 105.453 5.50881 104.486 3.96104C102.431 0.673432 92.4393 4.89096 89.8453 1" stroke="#F8D65C" stroke-width="2" stroke-linecap="round" stroke-linejoin="round"/>
</svg>
