<svg width="116" height="135" viewBox="0 0 116 135" fill="none" xmlns="http://www.w3.org/2000/svg">
<path d="M48.4695 5.58888C62.8386 2.51432 78.9046 5.01707 93.2267 7.815C94.1334 10.5019 95.2507 13.1304 96.6608 13.1304C100.62 13.1304 103.066 15.6869 106.427 17.6328C110.345 19.9014 110.954 24.6574 111.07 30.3521C111.228 38.1213 111.093 45.9732 112.151 53.7082C113.263 61.8423 113.157 70.382 112.551 78.4714C112.257 82.3969 111.863 86.176 110.91 89.8963C110.395 91.9092 107.584 95.1882 106.587 97.2127C101.352 107.845 97.3356 114.786 88.5755 119.893C84.1721 122.461 79.7331 125.272 75.8073 129.067C71.3341 133.391 62.8279 131.656 57.5954 131.656H47.629C44.2313 131.656 41.9972 129.393 38.8633 128.392C35.958 127.463 32.8917 127.023 29.9375 126.535C25.9068 125.868 24.3977 120.982 20.9717 119.5C18.2079 118.304 13.6622 112.613 12.0459 109.144C11.2131 107.357 11.0456 105.068 10.1246 103.403C9.23781 101.8 7.52851 101.505 6.92255 99.5764C4.55789 92.0516 3 86.3984 3 78.0212C3 68.7224 4.7651 59.9844 5.20143 50.7817C5.41761 46.2222 8.99504 41.5966 10.6049 37.6685C12.9556 31.9328 16.5263 28.8783 19.5708 24.0487C26.4309 13.1661 38.5932 7.7021 48.4695 5.58888Z" fill="#A8811D"/>
<path d="M94.4994 8.0652C79.8614 5.17082 63.2658 2.42291 48.4695 5.58888C38.5932 7.7021 26.4309 13.1661 19.5708 24.0487C16.5263 28.8783 12.9556 31.9328 10.6049 37.6685C8.99504 41.5966 5.41761 46.2222 5.20143 50.7817C4.7651 59.9844 3 68.7224 3 78.0212C3 86.3984 4.55789 92.0516 6.92255 99.5764C7.52851 101.505 9.23781 101.8 10.1246 103.403C11.0456 105.068 11.2131 107.357 12.0459 109.144C13.6622 112.613 18.2079 118.304 20.9717 119.5C24.3977 120.982 25.9068 125.868 29.9375 126.535C32.8917 127.023 35.958 127.463 38.8633 128.392C41.9972 129.393 44.2313 131.656 47.629 131.656C50.9511 131.656 54.2733 131.656 57.5954 131.656C62.8279 131.656 71.3341 133.391 75.8073 129.067C79.7331 125.272 84.1722 122.461 88.5755 119.893C97.3356 114.786 101.352 107.845 106.587 97.2127C107.584 95.1882 110.395 91.9092 110.91 89.8963C111.863 86.176 112.257 82.3969 112.551 78.4714C113.157 70.382 113.263 61.8423 112.151 53.7082C111.093 45.9732 111.228 38.1213 111.07 30.3521C110.954 24.6574 110.345 19.9014 106.427 17.6328C103.066 15.6869 100.62 13.1304 96.6608 13.1304C94.2735 13.1304 92.7255 5.59645 91.6175 3" stroke="white" stroke-width="5" stroke-linecap="round" stroke-linejoin="round"/>
</svg>
