<svg width="44" height="88" viewBox="0 0 44 88" fill="none" xmlns="http://www.w3.org/2000/svg">
<path d="M9.66705 70.8885C10.9662 74.3336 12.4535 77.2042 13.5012 80.6201C13.4931 82.9469 13.2544 85 16.0815 85C18.1723 85 20.7171 84.89 22.6751 84.216C27.1459 82.6771 35.3923 80.0156 38.0125 75.8774C42.5137 68.7683 40.5926 58.5669 40.5926 50.4339C40.5926 45.9083 39.8154 42.3394 39.1592 38.0329C38.546 34.008 39.2556 29.8084 38.5142 25.8457C37.7725 21.8815 36.4675 15.7129 33.5331 13.1596C32.14 11.9474 31.6381 10.31 30.523 8.95465C28.9114 6.99593 26.4092 5.71024 24.216 4.53589C20.8666 2.74242 18.1298 2.69348 14.4689 3.50247C9.86332 4.52023 3.81573 12.2788 3.21676 17.0438C2.75092 20.7497 3.18092 24.7958 3.18092 28.5183C3.18092 33.2048 3.23858 38.3026 3.86179 42.9506C4.20792 45.5321 4.16009 48.449 4.79349 50.9685C5.16949 52.464 5.01675 54.0016 5.40269 55.4941C5.89505 57.3982 7.25658 59.0257 7.62446 60.9463C8.28647 64.4025 8.38013 67.4758 9.66705 70.8885Z" fill="#FFD600"/>
<path d="M14.1464 83.0757C13.1471 78.4935 11.2649 75.1256 9.66705 70.8885C8.38013 67.4758 8.28647 64.4025 7.62446 60.9463C7.25658 59.0257 5.89505 57.3982 5.40269 55.4941C5.01675 54.0016 5.16949 52.464 4.79349 50.9685C4.16009 48.449 4.20792 45.5321 3.86179 42.9506C3.23858 38.3026 3.18092 33.2048 3.18092 28.5183C3.18092 24.7958 2.75092 20.7497 3.21676 17.0438C3.81573 12.2788 9.86332 4.52023 14.4689 3.50247C18.1298 2.69348 20.8666 2.74242 24.216 4.53589C26.4092 5.71024 28.9114 6.99593 30.523 8.95465C31.6381 10.31 32.14 11.9474 33.5331 13.1596C36.4675 15.7129 37.7725 21.8815 38.5142 25.8457C39.2556 29.8084 38.546 34.008 39.1592 38.0329C39.8154 42.3394 40.5926 45.9083 40.5926 50.4339C40.5926 58.5669 42.5137 68.7683 38.0125 75.8774C35.3923 80.0156 27.1459 82.6771 22.6751 84.216C20.7171 84.89 18.1723 85 16.0815 85C13.2099 85 13.5014 82.8817 13.5014 80.51" stroke="#D8B572" stroke-width="5" stroke-linecap="round" stroke-linejoin="round"/>
</svg>
