<svg width="119" height="151" viewBox="0 0 119 151" fill="none" xmlns="http://www.w3.org/2000/svg">
<path d="M35.2833 23.5427C51.1282 0.672029 80.9322 2.55444 105.349 2.82003C105.944 2.89253 106.603 2.84481 107.355 2.84481C109.411 2.84481 107.952 4.98191 108.776 6.03632C110.462 8.19569 112.067 10.2723 113.724 12.5132C118.068 18.3864 116.84 26.3083 116.84 33.3049C116.84 39.3979 116.015 45.3889 116.015 51.4214C116.015 54.4515 114.274 57.0677 113.724 60.0103C112.983 63.9765 112.716 68.0001 112.716 72.0254C112.716 82.4902 110.924 91.673 108.501 101.875C106.085 112.048 101.76 123.931 92.9227 130.13C87.135 134.189 79.5858 137.484 72.8542 139.516C67.094 141.256 62.3965 145.439 56.5429 146.838C50.1959 148.355 43.8081 149.051 37.2993 148.997C28.7814 148.926 23.0898 148.129 16.2687 142.708C11.9019 139.237 7.40071 136.837 4.85993 131.632C0.132099 121.946 1.56412 107.319 6.96757 98.3084C12.9122 88.3954 25.8769 88.5024 34.5502 82.304C43.9652 75.5754 43.1091 68.4476 39.3153 58.5554C34.909 47.0663 26.9737 35.5367 35.2833 23.5427Z" fill="#5B513E"/>
<path d="M109.417 2.84481C84.3319 2.84481 52.0202 -0.61541 35.2833 23.5427C26.9737 35.5367 34.909 47.0663 39.3153 58.5554C43.1091 68.4476 43.9652 75.5754 34.5502 82.304C25.8769 88.5024 12.9122 88.3954 6.96757 98.3084C1.56412 107.319 0.132099 121.946 4.85993 131.632C7.40071 136.837 11.9019 139.237 16.2687 142.708C23.0898 148.129 28.7814 148.926 37.2993 148.997C43.8081 149.051 50.1959 148.355 56.5429 146.838C62.3965 145.439 67.094 141.256 72.8543 139.516C79.5858 137.484 87.135 134.189 92.9227 130.13C101.76 123.931 106.085 112.048 108.501 101.875C110.924 91.6729 112.716 82.4902 112.716 72.0254C112.716 68.0001 112.983 63.9765 113.724 60.0103C114.274 57.0677 116.015 54.4515 116.015 51.4214C116.015 45.3889 116.84 39.3979 116.84 33.3049C116.84 26.3083 118.068 18.3864 113.724 12.5132C112.067 10.2723 110.462 8.19569 108.776 6.03632C107.952 4.98191 109.411 2.84481 107.355 2.84481C105.813 2.84481 104.665 3.0453 103.644 2" stroke="black" stroke-width="3" stroke-linecap="round" stroke-linejoin="round"/>
</svg>
